<svg width="1200" height="560" viewBox="0 0 1200 560" fill="none" xmlns="http://www.w3.org/2000/svg">
  <rect width="1200" height="560" rx="36" fill="url(#bg)"/>
  <circle cx="1030" cy="94" r="160" fill="white" fill-opacity="0.08"/>
  <circle cx="170" cy="470" r="210" fill="white" fill-opacity="0.08"/>
  <path d="M120 176C120 154 138 136 160 136H1040C1062 136 1080 154 1080 176V208C1080 230 1062 248 1040 248H160C138 248 120 230 120 208V176Z" fill="white" fill-opacity="0.92"/>
  <text x="164" y="220" fill="#E1251B" font-family="Arial, Helvetica, sans-serif" font-size="88" font-weight="700">ExxonMobil</text>
  <path d="M160 310H1040" stroke="white" stroke-opacity="0.3" stroke-width="6" stroke-linecap="round"/>
  <text x="120" y="390" fill="white" font-family="Arial, Helvetica, sans-serif" font-size="74" font-weight="700">Exxon Mobil</text>
  <text x="120" y="444" fill="white" fill-opacity="0.82" font-family="Arial, Helvetica, sans-serif" font-size="32">Real-time ML systems</text>
  <rect x="120" y="468" width="380" height="58" rx="29" fill="white" fill-opacity="0.14" stroke="white" stroke-opacity="0.2" stroke-width="3"/>
  <text x="162" y="506" fill="white" font-family="Arial, Helvetica, sans-serif" font-size="28" font-weight="700">Predictive maintenance</text>
  <defs>
    <linearGradient id="bg" x1="84" y1="58" x2="1114" y2="560" gradientUnits="userSpaceOnUse">
      <stop stop-color="#A40011"/>
      <stop offset="1" stop-color="#E1251B"/>
    </linearGradient>
  </defs>
</svg>
